<svg xmlns="http://www.w3.org/2000/svg" viewBox="0 0 1200 93"><defs/><path d="M1200-.5v93c-1.1-.2-2.1-.3-3.2-.4-5.6-.2-10.8.2-16.4-.2-6.6-.4-13.1-.6-19.7-1-5-.3-13.2.8-17.2-2.9-1.4-1.3-3.9-5.8-5.7-5.8-2.1 0-3.8 4.8-6 5.3-.9.1-2.4-.7-3.3-.9-1.4-.1-2.9 0-4.3.2-2.5.1-5 .5-7.3 1.2-5.8 2.2-12.6 1-18.8.7-5.8-.3-11.6-.8-17.4-1.1-12.7-.8-24.8-2.5-37.4-.7-5.8.8-11.6 1-17.4.9-5.6-.1-5.4.2-6.6-3.4-.9-2.8-1.8-5.6-2.8-8.4-2.1 2.3-2.6 5.6-3.6 8.7-1.3 4.1-3.5 2.9-7.2 2.8-2-.1-4-.1-5.9.1-1.1.1-3.4 1.3-4.4.8-2.5-1-1.6-6.7-2.9-8.3-1.3-1.7-5.2.3-6.5 1.4-2 1.7-2 4.8-2.8 7.2-1.1 3.2-2.5 1.4-5.2.8-3.2-.7-6.5-1.1-9.7-1.4-13.1-1.5-26.6-.9-39.8-1.2-13.5-.3-26.9.4-40.4.8-7.1.2-14 1.4-21.1 1.5-2.7 0-4.9.3-6.7-2.3-1.3-1.9-1.9-4.5-3-6.6-2.2 2.9-3 10.4-6.7 11.3-2.1.5-5.2-.5-7.4-.6-2.1-.1-4.3-.2-6.3-.2v-.7s-.4-.2-1-.3c-6-.6-11.6-.1-17.6.3-7 .4-13.5-2.6-20.4-2.6-2.8 0-6.5 1.1-9.1.3-2.7-.8-1.7-3.4-3.7-4.8-1.1-.8-3.2 0-4.5 0-1.6-.1-3.2-.3-4.8-.7-3.3-.5-6.6-.6-9.8-.1-2.7.4-5.2.8-7.4 2.5-2.5 1.8-3.8 2.7-7.1 2.8-6.5.3-12.8-.2-19.3.5-5.8.6-11.7.9-17.5 1.2-6.8.4-13.4 1.3-20.2.9-3.3-.2-6.5-1.2-9.7-1.2-3.4 0-2.2-1.1-4.9-2.6-1.4-.8-3.8-.4-5.5-1-1.5-.6-2.9-1.4-4.2-2.3-3-1.8-3-.3-6 .7-2.6.9-3.5 1.4-5.2-.5-1.7-1.9-1.4-6.6-3.5-8-1.7.8-1.9 7.1-2.2 8.8-.4 2-.2 3-2 3.8-1 .5-3.7 0-4.9-.5h-20.9c0 .5-29.4-1.5-44.2-1.5-7.1 0-14.3.3-21.4-.2-3.4-.2-6.8-.9-10.3-.7-3.4.2-4.1-.7-6.5-3.3-2.1-2.1-3.3-4.1-6.5-3-2.7 1-4.4 4.5-7.2 4.9-2.3.3-5.5-.5-7.9-.5-3.7 0-7.4.1-11.1.2-6.9.3-13.9.6-20.7 1-5.2.3-9.6 1.3-15.9 1.7v.2c-1.7-.1-5.4.8-8.4.8-5.8 0-11.2-.6-17-1-7.2-.4-14.4.1-21.5-.4-4.2-.3-10.3.5-13.9-1.8-1.6-1-3.4-5.3-5-5.2-1.9.1-3.1 3.7-3.7 4.9-1.7 3.7-2 3.7-6 3.7-3.1 0-6.3.1-9.4-.2-12.4-1-24.7-.8-37-1.2-3.3-.1-8.1.8-11.2-.2-2.3-.7-1.9-.9-2.3-3.4-.2-2.7-.8-5.3-1.7-7.9-1.2-2.9-1.7-1.7-3.2.6-1.7 2.6-3 6.3-5 8.6-1.7 2-3.9 1.8-6.6 2-2.7.2-5.5.2-8.2.2-.9 0-3.4.4-4.1-.1-.9-.6-.1-.8-.6-1.6-.9-1.5.4-1.5-1.8-2-1.1-.2-2.8.3-3.9.3-2.6.2-5.2.2-7.9.2-3.1 0-5.2-.4-7.7 1.5-2.6 1.9-5.1 1.5-8.3 1.6-13.1.3-26.3 1.5-39.3 1-7.1-.3-14.1-1-21.2-.8-5.8.2-17.2 1.4-17.2 1.4h-.7v.1c-.4 0-.9-.1-1.3-.2-4-.7-8.1-.2-12.1.2-4.4.4-8.9.5-13.4.5-1.8 0-3.4-.2-5.3-.3-1.9-.1-3.8.5-5.7.2-3.5-.6-5.5-3-7.9-5.3-1.1 3-1.2 3.9-4.5 3.4-2.9-.4-5.6-.4-8.5-.6-1.4-.1-3.2-.1-4.4-.8-.9-.6-1.3-2.2-2.2-2.6-1.2-.6-5 1.1-6.7 1.4-6.5.9-13 2.7-19.5 2.8-1.4 0-2.8.2-3.5-.8-.8-1-.9-3.3-1.2-4.6-.2-.9-1.2-8.1-1.4-8.1-.5 2.5-.9 5.1-1.4 7.6-.4 2.1-.2 5.3-2.2 6.1-2.2.8-5.9.2-8.3.3-2.6.1-4.5.5-6.5-1.3-1.4-1.3-3.5-4-5.6-4.3-2.9-.4-1.8 3.2-3.3 4.7-1.3 1.3-4.5.8-6.3.9-2.9.2-5.8.3-8.6.3-10.3.2-20.8.6-31 1.5-5.7.8-11.2-.2-16.7.5-5 .7-8.6 1.9-13.5 3.8v-93h1200z" opacity=".5"/></svg>